<svg xmlns="http://www.w3.org/2000/svg" data-name="Layer 1" viewBox="0 0 110 110" id="repost"><path d="M79.945 86.552a2.564 2.564 0 0 1 0 3.74L67.175 102.3a2.537 2.537 0 0 1-1.74.7 2.635 2.635 0 0 1-1.03-.21 2.552 2.552 0 0 1-1.55-2.35v-5.8h-29.83c-10.82 0-19.61-9.82-19.61-21.89V37.122a2.559 2.559 0 0 1 2.56-2.56H23.3a2.565 2.565 0 0 1 2.56 2.56v35.63c0 5.12 3.28 9.45 7.17 9.45h29.83V76.4a2.562 2.562 0 0 1 4.32-1.86zm16.64-49.3v35.63a2.565 2.565 0 0 1-2.56 2.56H86.7a2.565 2.565 0 0 1-2.56-2.56v-35.63c0-5.12-3.28-9.45-7.17-9.45H47.135v5.8a2.562 2.562 0 0 1-4.32 1.86l-12.77-12.02a2.564 2.564 0 0 1-.8-1.86 2.6 2.6 0 0 1 .8-1.87L42.825 7.7a2.554 2.554 0 0 1 4.31 1.86v5.8h29.83c10.82.002 19.62 9.822 19.62 21.892z" fill="#ffffff" class="color000000 svgShape"></path></svg>