<svg xmlns="http://www.w3.org/2000/svg" data-name="1-repost" viewBox="0 0 32 32" id="Repost"><path fill="#ffffff" d="M7 20a1 1 0 0 1-.71-.29l-4-4A1 1 0 0 1 3.7 14.3L7 17.59l3.29-3.29a1 1 0 0 1 1.41 1.41l-4 4A1 1 0 0 1 7 20zm22-2a1 1 0 0 1-.71-.29L25 14.41l-3.29 3.29a1 1 0 0 1-1.41-1.41l4-4a1 1 0 0 1 1.41 0l4 4A1 1 0 0 1 29 18z" class="color101820 svgShape"></path><path fill="#ffffff" d="M25 26H8a1 1 0 0 1 0-2h16V13a1 1 0 0 1 2 0v12a1 1 0 0 1-1 1zM7 20a1 1 0 0 1-1-1V7a1 1 0 0 1 1-1h17a1 1 0 0 1 0 2H8v11a1 1 0 0 1-1 1z" class="color101820 svgShape"></path></svg>