<svg xmlns="http://www.w3.org/2000/svg" viewBox="0 0 32 32" id="send"><path d="M5.93,16.15l6.32,3a1.29,1.29,0,0,1,.65.65l2.95,6.32a3.33,3.33,0,0,0,3,1.93h.2a3.3,3.3,0,0,0,3-2.28L27.82,8.4A3.33,3.33,0,0,0,23.6,4.18L6.29,10a3.3,3.3,0,0,0-2.28,3A3.33,3.33,0,0,0,5.93,16.15ZM6,13a1.33,1.33,0,0,1,.92-1.2L24.23,6.07A1.29,1.29,0,0,1,24.66,6a1.36,1.36,0,0,1,1.27,1.77L20.16,25.08A1.33,1.33,0,0,1,19,26a1.3,1.3,0,0,1-1.29-.77l-3-6.33s-.05-.08-.07-.13l4.19-4.18a1,1,0,0,0-1.42-1.42l-4.18,4.19-.13-.07-6.32-3A1.31,1.31,0,0,1,6,13Z" data-name="Layer 5" fill="#ffffff" class="color000000 svgShape"></path></svg>